<svg width="32" height="32" viewBox="0 0 32 32" fill="none" xmlns="http://www.w3.org/2000/svg">
<g id="vuesax/linear/airplane-square">
<g id="airplane-square">
<path id="Vector" d="M13.147 25.3333L15.387 23.4399C15.7204 23.1599 16.2804 23.1599 16.627 23.4399L18.8537 25.3333C19.3737 25.5999 20.0137 25.3333 20.2004 24.7733L20.627 23.4933C20.7337 23.1866 20.627 22.7333 20.4004 22.5066L18.2137 20.3066C18.0537 20.1466 17.9337 19.8399 17.9337 19.6266V17.1599C17.9337 16.5999 18.347 16.3333 18.867 16.5466L23.3337 18.4666C24.067 18.7866 24.6804 18.3866 24.6804 17.5866V16.3466C24.6804 15.7066 24.2004 14.9599 23.6004 14.7066L18.347 12.4399C18.1204 12.3466 17.947 12.0666 17.947 11.8266V9.06661C17.947 8.15995 17.2804 7.09328 16.4804 6.67995C16.187 6.53328 15.8537 6.53328 15.5604 6.67995C14.747 7.07995 14.0937 8.15995 14.0937 9.06661V11.8266C14.0937 12.0666 13.907 12.3466 13.6937 12.4399L8.44035 14.7066C7.85368 14.9599 7.36035 15.7066 7.36035 16.3466V17.5866C7.36035 18.3866 7.96035 18.7866 8.70702 18.4666L13.1737 16.5466C13.6804 16.3199 14.107 16.5999 14.107 17.1599V19.6266C14.107 19.8533 13.9737 20.1599 13.827 20.3066L11.6004 22.4933C11.3737 22.7199 11.267 23.1733 11.3737 23.4799L11.8004 24.7599C11.987 25.3333 12.6137 25.5999 13.147 25.3333Z" stroke="white" stroke-width="1.5" stroke-linecap="round" stroke-linejoin="round"/>
<path id="Vector_2" d="M12.0003 29.3333H20.0003C26.667 29.3333 29.3337 26.6666 29.3337 20V12C29.3337 5.33329 26.667 2.66663 20.0003 2.66663H12.0003C5.33366 2.66663 2.66699 5.33329 2.66699 12V20C2.66699 26.6666 5.33366 29.3333 12.0003 29.3333Z" stroke="white" stroke-width="1.5" stroke-linecap="round" stroke-linejoin="round"/>
</g>
</g>
</svg>
