<svg width="46" height="46" viewBox="0 0 46 46" fill="none" xmlns="http://www.w3.org/2000/svg">
<g id="vuesax/linear/calendar-tick">
<g id="calendar-tick">
<path id="Vector" d="M15.333 3.83337V9.58337" stroke="#29D025" stroke-width="1.5" stroke-miterlimit="10" stroke-linecap="round" stroke-linejoin="round"/>
<path id="Vector_2" d="M30.667 3.83337V9.58337" stroke="#29D025" stroke-width="1.5" stroke-miterlimit="10" stroke-linecap="round" stroke-linejoin="round"/>
<path id="Vector_3" d="M6.70801 17.4225H39.2913" stroke="#29D025" stroke-width="1.5" stroke-miterlimit="10" stroke-linecap="round" stroke-linejoin="round"/>
<g id="Group">
<path id="Vector_4" d="M42.1663 36.4167C42.1663 37.8542 41.7638 39.215 41.0547 40.365C39.7322 42.5883 37.298 44.0833 34.4997 44.0833C32.5638 44.0833 30.8005 43.3742 29.4588 42.1667C28.8647 41.6683 28.3472 41.055 27.9447 40.365C27.2355 39.215 26.833 37.8542 26.833 36.4167C26.833 32.1808 30.2638 28.75 34.4997 28.75C36.7997 28.75 38.8505 29.7658 40.2497 31.3566C41.438 32.7175 42.1663 34.4808 42.1663 36.4167Z" stroke="#29D025" stroke-width="1.5" stroke-miterlimit="10" stroke-linecap="round" stroke-linejoin="round"/>
<path id="Vector_5" d="M31.5098 36.4167L33.4073 38.3142L37.4898 34.5383" stroke="#29D025" stroke-width="1.5" stroke-linecap="round" stroke-linejoin="round"/>
</g>
<path id="Vector_6" d="M40.25 16.2917V31.3567C38.8508 29.7658 36.8 28.75 34.5 28.75C30.2642 28.75 26.8333 32.1809 26.8333 36.4167C26.8333 37.8542 27.2358 39.215 27.945 40.365C28.3475 41.055 28.865 41.6684 29.4592 42.1667H15.3333C8.625 42.1667 5.75 38.3334 5.75 32.5834V16.2917C5.75 10.5417 8.625 6.70837 15.3333 6.70837H30.6667C37.375 6.70837 40.25 10.5417 40.25 16.2917Z" stroke="#29D025" stroke-width="1.5" stroke-miterlimit="10" stroke-linecap="round" stroke-linejoin="round"/>
<path id="Vector_7" d="M22.9918 26.2584H23.009" stroke="#29D025" stroke-width="2" stroke-linecap="round" stroke-linejoin="round"/>
<path id="Vector_8" d="M15.897 26.2584H15.9142" stroke="#29D025" stroke-width="2" stroke-linecap="round" stroke-linejoin="round"/>
<path id="Vector_9" d="M15.897 32.0084H15.9142" stroke="#29D025" stroke-width="2" stroke-linecap="round" stroke-linejoin="round"/>
</g>
</g>
</svg>
