<svg width="32" height="31" viewBox="0 0 32 31" fill="none" xmlns="http://www.w3.org/2000/svg">
<g id="vuesax/linear/calendar-tick">
<g id="calendar-tick">
<path id="Vector" d="M10.667 2.58337V6.45837" stroke="white" stroke-width="1.5" stroke-miterlimit="10" stroke-linecap="round" stroke-linejoin="round"/>
<path id="Vector_2" d="M21.333 2.58337V6.45837" stroke="white" stroke-width="1.5" stroke-miterlimit="10" stroke-linecap="round" stroke-linejoin="round"/>
<path id="Vector_3" d="M4.66699 11.7412H27.3337" stroke="white" stroke-width="1.5" stroke-miterlimit="10" stroke-linecap="round" stroke-linejoin="round"/>
<g id="Group">
<path id="Vector_4" d="M29.3337 24.5417C29.3337 25.5104 29.0537 26.4275 28.5603 27.2025C27.6403 28.7008 25.947 29.7083 24.0003 29.7083C22.6537 29.7083 21.427 29.2304 20.4937 28.4167C20.0803 28.0808 19.7203 27.6675 19.4403 27.2025C18.947 26.4275 18.667 25.5104 18.667 24.5417C18.667 21.6871 21.0537 19.375 24.0003 19.375C25.6003 19.375 27.027 20.0596 28.0003 21.1316C28.827 22.0487 29.3337 23.2371 29.3337 24.5417Z" stroke="white" stroke-width="1.5" stroke-miterlimit="10" stroke-linecap="round" stroke-linejoin="round"/>
<path id="Vector_5" d="M21.9199 24.5417L23.2399 25.8205L26.0799 23.2759" stroke="white" stroke-width="1.5" stroke-linecap="round" stroke-linejoin="round"/>
</g>
<path id="Vector_6" d="M28 10.9792V21.1317C27.0267 20.0596 25.6 19.375 24 19.375C21.0533 19.375 18.6667 21.6871 18.6667 24.5417C18.6667 25.5105 18.9467 26.4275 19.44 27.2025C19.72 27.6675 20.08 28.0809 20.4933 28.4167H10.6667C6 28.4167 4 25.8334 4 21.9584V10.9792C4 7.10421 6 4.52087 10.6667 4.52087H21.3333C26 4.52087 28 7.10421 28 10.9792Z" stroke="white" stroke-width="1.5" stroke-miterlimit="10" stroke-linecap="round" stroke-linejoin="round"/>
<path id="Vector_7" d="M15.9943 17.6959H16.0063" stroke="white" stroke-width="2" stroke-linecap="round" stroke-linejoin="round"/>
<path id="Vector_8" d="M11.0588 17.6959H11.0707" stroke="white" stroke-width="2" stroke-linecap="round" stroke-linejoin="round"/>
<path id="Vector_9" d="M11.0588 21.5709H11.0707" stroke="white" stroke-width="2" stroke-linecap="round" stroke-linejoin="round"/>
</g>
</g>
</svg>
