<svg width="123" height="121" viewBox="0 0 123 121" fill="none" xmlns="http://www.w3.org/2000/svg">
<g id="vuesax/linear/card-remove">
<path id="Vector" d="M9.72949 50.5693H112.229" stroke="#FF3D5D" stroke-width="1.5" stroke-miterlimit="10" stroke-linecap="round" stroke-linejoin="round"/>
<path id="Vector_2" d="M58.7245 103.506H32.5355C14.3417 103.506 9.72949 99.0689 9.72949 81.3727V39.9302C9.72949 23.8977 13.5218 18.7552 27.8206 17.9485C29.2556 17.8981 30.8442 17.8477 32.5355 17.8477H89.4745C107.668 17.8477 112.28 22.2843 112.28 39.9806V62.2143" stroke="#FF3D5D" stroke-width="1.5" stroke-linecap="round" stroke-linejoin="round"/>
<path id="Vector_3" d="M91.7295 111.069C103.051 111.069 112.229 102.04 112.229 90.9026C112.229 79.7649 103.051 70.736 91.7295 70.736C80.4077 70.736 71.2295 79.7649 71.2295 90.9026C71.2295 102.04 80.4077 111.069 91.7295 111.069Z" stroke="#FF3D5D" stroke-width="1.5" stroke-miterlimit="10" stroke-linecap="round" stroke-linejoin="round"/>
<g id="Group">
<path id="Vector_4" d="M97.218 96.5493L86.4043 85.861" stroke="#FF3D5D" stroke-width="1.5" stroke-miterlimit="10" stroke-linecap="round" stroke-linejoin="round"/>
<path id="Vector_5" d="M97.1091 86.0122L86.2441 96.6501" stroke="#FF3D5D" stroke-width="1.5" stroke-miterlimit="10" stroke-linecap="round" stroke-linejoin="round"/>
</g>
<path id="Vector_6" d="M30.2295 80.8193H50.7295" stroke="#FF3D5D" stroke-width="1.5" stroke-miterlimit="10" stroke-linecap="round" stroke-linejoin="round"/>
</g>
</svg>
