<svg width="127" height="132" viewBox="0 0 127 132" fill="none" xmlns="http://www.w3.org/2000/svg">
<g id="vuesax/linear/card-tick">
<path id="Vector" d="M10.5835 55H116.417" stroke="#29D025" stroke-width="1.5" stroke-miterlimit="10" stroke-linecap="round" stroke-linejoin="round"/>
<path id="Vector_2" d="M61.1098 112.749H34.0695C15.284 112.749 10.5215 107.909 10.5215 88.6037V43.3937C10.5215 25.9037 14.4375 20.2937 29.2012 19.4137C30.6829 19.3587 32.3232 19.3037 34.0695 19.3037H92.8598C111.645 19.3037 116.408 24.1437 116.408 43.4487V67.7037" stroke="#29D025" stroke-width="1.5" stroke-linecap="round" stroke-linejoin="round"/>
<path id="Vector_3" d="M31.75 88H52.9167" stroke="#29D025" stroke-width="1.5" stroke-miterlimit="10" stroke-linecap="round" stroke-linejoin="round"/>
<path id="Vector_4" d="M116.417 99C116.417 103.125 115.305 107.03 113.348 110.33C109.696 116.71 102.976 121 95.2502 121C87.5243 121 80.804 116.71 77.1528 110.33C75.1948 107.03 74.0835 103.125 74.0835 99C74.0835 86.845 83.5556 77 95.2502 77C106.945 77 116.417 86.845 116.417 99Z" stroke="#29D025" stroke-width="1.5" stroke-miterlimit="10" stroke-linecap="round" stroke-linejoin="round"/>
<path id="Vector_5" d="M87.0024 98.9974L92.2411 104.442L103.512 93.6074" stroke="#29D025" stroke-width="1.5" stroke-linecap="round" stroke-linejoin="round"/>
</g>
</svg>
