<svg width="24" height="24" viewBox="0 0 24 24" fill="none" xmlns="http://www.w3.org/2000/svg">
<g id="vuesax/linear/chart-square">
<g id="Group">
<path id="Vector" d="M10.1103 11.1501H7.4603C6.8303 11.1501 6.32031 11.6601 6.32031 12.2901V17.4101H10.1103V11.1501V11.1501Z" stroke="#FF3D5D" stroke-width="1.5" stroke-miterlimit="10" stroke-linecap="round" stroke-linejoin="round"/>
<path id="Vector_2" d="M12.7616 6.6001H11.2415C10.6115 6.6001 10.1016 7.11011 10.1016 7.74011V17.4001H13.8916V7.74011C13.8916 7.11011 13.3916 6.6001 12.7616 6.6001Z" stroke="#FF3D5D" stroke-width="1.5" stroke-miterlimit="10" stroke-linecap="round" stroke-linejoin="round"/>
<path id="Vector_3" d="M16.5484 12.8501H13.8984V17.4001H17.6884V13.9901C17.6784 13.3601 17.1684 12.8501 16.5484 12.8501Z" stroke="#FF3D5D" stroke-width="1.5" stroke-miterlimit="10" stroke-linecap="round" stroke-linejoin="round"/>
</g>
<path id="Vector_4" d="M9 22H15C20 22 22 20 22 15V9C22 4 20 2 15 2H9C4 2 2 4 2 9V15C2 20 4 22 9 22Z" stroke="#FF3D5D" stroke-width="1.5" stroke-linecap="round" stroke-linejoin="round"/>
</g>
</svg>
