<svg width="90" height="98" viewBox="0 0 90 98" fill="none" xmlns="http://www.w3.org/2000/svg">
<g id="vuesax/linear/emoji-happy">
<g id="emoji-happy">
<path id="Vector" d="M33.75 89.8333H56.25C75 89.8333 82.5 81.6666 82.5 61.25V36.75C82.5 16.3333 75 8.16663 56.25 8.16663H33.75C15 8.16663 7.5 16.3333 7.5 36.75V61.25C7.5 81.6666 15 89.8333 33.75 89.8333Z" stroke="#29D025" stroke-width="1.5" stroke-linecap="round" stroke-linejoin="round"/>
<path id="Vector_2" d="M58.125 39.8125C61.2316 39.8125 63.75 37.0702 63.75 33.6875C63.75 30.3048 61.2316 27.5625 58.125 27.5625C55.0184 27.5625 52.5 30.3048 52.5 33.6875C52.5 37.0702 55.0184 39.8125 58.125 39.8125Z" stroke="#29D025" stroke-width="1.5" stroke-miterlimit="10" stroke-linecap="round" stroke-linejoin="round"/>
<path id="Vector_3" d="M31.875 39.8125C34.9816 39.8125 37.5 37.0702 37.5 33.6875C37.5 30.3048 34.9816 27.5625 31.875 27.5625C28.7684 27.5625 26.25 30.3048 26.25 33.6875C26.25 37.0702 28.7684 39.8125 31.875 39.8125Z" stroke="#29D025" stroke-width="1.5" stroke-miterlimit="10" stroke-linecap="round" stroke-linejoin="round"/>
<path id="Vector_4" d="M31.5 54.3083H58.5C60.375 54.3083 61.875 55.9417 61.875 57.9833C61.875 68.1508 54.3375 76.3584 45 76.3584C35.6625 76.3584 28.125 68.1508 28.125 57.9833C28.125 55.9417 29.625 54.3083 31.5 54.3083Z" stroke="#29D025" stroke-width="1.5" stroke-miterlimit="10" stroke-linecap="round" stroke-linejoin="round"/>
</g>
</g>
</svg>
