<svg width="96" height="101" viewBox="0 0 96 101" fill="none" xmlns="http://www.w3.org/2000/svg">
<g id="vuesax/linear/emoji-sad">
<g id="emoji-sad">
<path id="Vector" d="M36 92.5833H60C80 92.5833 88 84.1666 88 63.125V37.875C88 16.8333 80 8.41663 60 8.41663H36C16 8.41663 8 16.8333 8 37.875V63.125C8 84.1666 16 92.5833 36 92.5833Z" stroke="#FF3B3B" stroke-width="1.5" stroke-linecap="round" stroke-linejoin="round"/>
<path id="Vector_2" d="M28 36.8229C32 32.6145 38.52 32.6145 42.56 36.8229" stroke="#FF3B3B" stroke-width="1.5" stroke-miterlimit="10" stroke-linecap="round" stroke-linejoin="round"/>
<path id="Vector_3" d="M53.4399 36.8229C57.4399 32.6145 63.9599 32.6145 67.9999 36.8229" stroke="#FF3B3B" stroke-width="1.5" stroke-miterlimit="10" stroke-linecap="round" stroke-linejoin="round"/>
<path id="Vector_4" d="M33.6 74.4875H62.4C64.4 74.4875 66 72.8041 66 70.6999C66 60.2212 57.96 51.7625 48 51.7625C38.04 51.7625 30 60.2212 30 70.6999C30 72.8041 31.6 74.4875 33.6 74.4875Z" stroke="#FF3B3B" stroke-width="1.5" stroke-miterlimit="10" stroke-linecap="round" stroke-linejoin="round"/>
</g>
</g>
</svg>
