<svg width="16" height="17" viewBox="0 0 16 17" fill="none" xmlns="http://www.w3.org/2000/svg">
<g id="&#240;&#159;&#148;&#189; Icon">
<path id="Star 1 (Stroke)" fill-rule="evenodd" clip-rule="evenodd" d="M8.18177 3.42505C8.01227 3.72058 7.82317 4.18736 7.53396 4.90836L7.49563 5.00391C7.34772 5.37272 7.21726 5.698 7.08051 5.95817C6.93237 6.24001 6.75085 6.49857 6.47361 6.7047C6.19636 6.91083 5.89647 7.01018 5.58391 7.07087C5.29539 7.1269 4.94632 7.15814 4.55055 7.19356L4.36463 7.21021C3.64713 7.27447 3.18927 7.31728 2.88581 7.38889C2.87832 7.39066 2.87109 7.39241 2.86408 7.39414C2.86862 7.39975 2.87333 7.40552 2.87822 7.41145C3.07673 7.65189 3.41566 7.96268 3.94851 8.44746L4.3125 8.77861C4.55596 9.00009 4.77112 9.19582 4.93785 9.3762C5.11806 9.57116 5.2756 9.78292 5.38018 10.0505C5.41418 10.1375 5.44245 10.2266 5.4648 10.3173C5.53354 10.5962 5.52685 10.86 5.49195 11.1232C5.45966 11.3667 5.39664 11.6507 5.32533 11.972L5.27189 12.2129C5.12776 12.8625 5.03348 13.292 4.99924 13.5954C4.99707 13.6147 4.99525 13.6326 4.99373 13.6494C5.00803 13.6405 5.02329 13.6308 5.03953 13.6203C5.2953 13.4535 5.63682 13.1765 6.15266 12.7561L6.17674 12.7365C6.4859 12.4846 6.75548 12.2649 6.99594 12.1041C7.25321 11.932 7.52854 11.791 7.85837 11.7383C8.08174 11.7026 8.30935 11.7026 8.53272 11.7383C8.86256 11.791 9.13788 11.932 9.39516 12.1041C9.63561 12.2649 9.90519 12.4846 10.2143 12.7365L10.2384 12.7561C10.7543 13.1765 11.0958 13.4535 11.3516 13.6203C11.3678 13.6308 11.3831 13.6405 11.3974 13.6494C11.3958 13.6326 11.394 13.6147 11.3919 13.5954C11.3576 13.292 11.2633 12.8625 11.1192 12.2129L11.0658 11.972C10.9945 11.6507 10.9314 11.3667 10.8991 11.1232C10.8642 10.86 10.8576 10.5962 10.9263 10.3173C10.9486 10.2266 10.9769 10.1375 11.0109 10.0505C11.1155 9.78292 11.273 9.57116 11.4532 9.3762C11.62 9.19583 11.8351 9.00009 12.0786 8.77862L12.4426 8.44746C12.9754 7.96268 13.3144 7.65189 13.5129 7.41145C13.5178 7.40552 13.5225 7.39975 13.527 7.39414C13.52 7.39241 13.5128 7.39066 13.5053 7.38889C13.2018 7.31728 12.744 7.27447 12.0265 7.21021L11.8405 7.19356C11.4448 7.15814 11.0957 7.1269 10.8072 7.07087C10.4946 7.01018 10.1947 6.91083 9.91749 6.7047C9.64024 6.49857 9.45872 6.24001 9.31058 5.95817C9.17383 5.698 9.04338 5.37273 8.89547 5.00394L8.85713 4.90836C8.56792 4.18736 8.37882 3.72058 8.20932 3.42505C8.20461 3.41685 8.20002 3.40896 8.19555 3.40136C8.19107 3.40896 8.18648 3.41685 8.18177 3.42505ZM8.32589 3.22052C8.3259 3.22081 8.32369 3.22294 8.31925 3.22607C8.32367 3.2218 8.32589 3.22024 8.32589 3.22052ZM8.07184 3.22607C8.06741 3.22294 8.0652 3.22081 8.0652 3.22052C8.0652 3.22024 8.06742 3.2218 8.07184 3.22607ZM13.7151 7.45903C13.7148 7.4591 13.7123 7.45774 13.7083 7.45469C13.7133 7.45743 13.7153 7.45895 13.7151 7.45903ZM13.6349 7.23632C13.6362 7.23148 13.6374 7.22889 13.6376 7.22881C13.6379 7.22872 13.6372 7.23114 13.6349 7.23632ZM2.75346 7.22881C2.7537 7.22889 2.75485 7.23148 2.75619 7.23632C2.75389 7.23114 2.75322 7.22872 2.75346 7.22881ZM2.68275 7.45469C2.67875 7.45774 2.67627 7.4591 2.67603 7.45903C2.67579 7.45895 2.67778 7.45743 2.68275 7.45469ZM6.9451 2.71574C7.1601 2.3409 7.53369 1.83337 8.19555 1.83337C8.8574 1.83337 9.231 2.3409 9.44599 2.71574C9.67147 3.10885 9.89699 3.67118 10.1596 4.32596L10.2064 4.4427C10.3702 4.85105 10.4739 5.1073 10.5725 5.29485C10.6635 5.46787 10.7225 5.52673 10.7681 5.56061C10.8137 5.59448 10.8871 5.6341 11.0789 5.67136C11.2869 5.71174 11.5622 5.73727 12.0004 5.77652L12.2085 5.79515C12.855 5.853 13.4173 5.90332 13.8327 6.00135C14.2404 6.09756 14.7938 6.30348 14.9946 6.90055C15.1954 7.49761 14.8789 7.99611 14.6122 8.31912C14.3405 8.64827 13.9229 9.02815 13.4428 9.4649L13.0582 9.81476C12.7885 10.0601 12.6199 10.2143 12.5001 10.3439C12.3893 10.4639 12.3557 10.5262 12.3387 10.5695C12.3274 10.5985 12.318 10.6282 12.3105 10.6584C12.2994 10.7036 12.2909 10.7738 12.3124 10.9358C12.3356 11.1107 12.3845 11.3339 12.4635 11.6899L12.5202 11.9454C12.6527 12.5425 12.7647 13.0473 12.8085 13.4355C12.8479 13.7845 12.8739 14.3122 12.5214 14.7047C12.3383 14.9086 12.1003 15.0554 11.836 15.1275C11.327 15.2664 10.8671 15.0063 10.5729 14.8145C10.2456 14.6011 9.84485 14.2745 9.37072 13.8881L9.33786 13.8613C8.99764 13.5841 8.78036 13.408 8.60265 13.2892C8.43553 13.1774 8.35669 13.1539 8.30794 13.1461C8.23348 13.1342 8.15761 13.1342 8.08315 13.1461C8.0344 13.1539 7.95556 13.1774 7.78845 13.2892C7.61074 13.408 7.39345 13.5841 7.05323 13.8613L7.02037 13.8881C6.54624 14.2745 6.14546 14.6011 5.81817 14.8145C5.524 15.0063 5.06408 15.2664 4.55509 15.1275C4.29074 15.0554 4.05279 14.9086 3.8697 14.7047C3.51716 14.3122 3.5432 13.7845 3.58258 13.4355C3.62639 13.0473 3.7384 12.5425 3.8709 11.9454L3.92761 11.6899C4.00658 11.3339 4.05547 11.1107 4.07867 10.9358C4.10015 10.7738 4.0917 10.7036 4.08056 10.6584C4.07311 10.6282 4.06369 10.5985 4.05236 10.5695C4.03542 10.5262 4.00183 10.4639 3.89094 10.3439C3.77117 10.2143 3.60257 10.0601 3.33289 9.81476L2.98911 9.50199C2.97547 9.48958 2.96188 9.47722 2.94833 9.4649C2.46821 9.02816 2.0506 8.64827 1.77885 8.31912C1.51217 7.99611 1.19566 7.49761 1.39647 6.90055C1.59727 6.30348 2.15069 6.09756 2.55836 6.00135C2.97379 5.90332 3.53609 5.853 4.18255 5.79515C4.20079 5.79352 4.21909 5.79188 4.23746 5.79024L4.39067 5.77652C4.8289 5.73727 5.10416 5.71174 5.31216 5.67136C5.50404 5.6341 5.57743 5.59448 5.62299 5.56061C5.66855 5.52673 5.72762 5.46787 5.81857 5.29485C5.91715 5.10729 6.02088 4.85105 6.18468 4.44269L6.21079 4.3776C6.21772 4.36032 6.22462 4.34311 6.2315 4.32595C6.4941 3.67117 6.71963 3.10884 6.9451 2.71574Z" fill="white"/>
</g>
</svg>
