<svg width="212" height="216" viewBox="0 0 212 216" fill="none" xmlns="http://www.w3.org/2000/svg">
<g id="vuesax/linear/message-text">
<g id="message-text">
<path id="Vector" d="M75.0837 171H70.667C35.3337 171 17.667 162 17.667 117V72C17.667 36 35.3337 18 70.667 18H141.334C176.667 18 194.334 36 194.334 72V117C194.334 153 176.667 171 141.334 171H136.917C134.179 171 131.529 172.35 129.85 174.6L116.6 192.6C110.77 200.52 101.23 200.52 95.4003 192.6L82.1503 174.6C80.737 172.62 77.4687 171 75.0837 171Z" stroke="#29D025" stroke-width="1.5" stroke-miterlimit="10" stroke-linecap="round" stroke-linejoin="round"/>
<path id="Vector_2" d="M61.833 72H150.166" stroke="#29D025" stroke-width="1.5" stroke-linecap="round" stroke-linejoin="round"/>
<path id="Vector_3" d="M61.833 117H114.833" stroke="#29D025" stroke-width="1.5" stroke-linecap="round" stroke-linejoin="round"/>
</g>
</g>
</svg>
