<svg width="24" height="24" viewBox="0 0 24 24" fill="none" xmlns="http://www.w3.org/2000/svg">
<g id="vuesax/linear/money-tick">
<path id="Vector" d="M12 14.5C10.6193 14.5 9.5 13.3807 9.5 12C9.5 10.6193 10.6193 9.5 12 9.5C13.3807 9.5 14.5 10.6193 14.5 12C14.5 13.3807 13.3807 14.5 12 14.5Z" stroke="#29D025" stroke-width="1.5" stroke-miterlimit="10" stroke-linecap="round" stroke-linejoin="round"/>
<path id="Vector_2" d="M5.5 9.5V14.5" stroke="#29D025" stroke-width="1.5" stroke-miterlimit="10" stroke-linecap="round" stroke-linejoin="round"/>
<g id="Group">
<path id="Vector_3" d="M15 18C15 18.75 15.21 19.46 15.58 20.06C16.27 21.22 17.54 22 19 22C20.46 22 21.73 21.22 22.42 20.06C22.79 19.46 23 18.75 23 18C23 15.79 21.21 14 19 14C16.79 14 15 15.79 15 18Z" stroke="#29D025" stroke-width="1.5" stroke-miterlimit="10" stroke-linecap="round" stroke-linejoin="round"/>
<path id="Vector_4" d="M20.5586 17.9995L19.5686 18.9895L17.4386 17.0195" stroke="#29D025" stroke-width="1.5" stroke-linecap="round" stroke-linejoin="round"/>
</g>
<path id="Vector_5" d="M22 15.3V9C22 5.5 20 4 17 4H7C4 4 2 5.5 2 9V15C2 18.5 4 20 7 20H15.5" stroke="#29D025" stroke-width="1.5" stroke-miterlimit="10" stroke-linecap="round" stroke-linejoin="round"/>
</g>
</svg>
