<svg width="26" height="24" viewBox="0 0 26 24" fill="none" xmlns="http://www.w3.org/2000/svg">
<g id="vuesax/linear/more">
<g id="more">
<path id="Vector" d="M15.4331 19C15.4331 20.1 14.4901 21 13.3376 21C12.185 21 11.2421 20.1 11.2421 19C11.2421 17.9 12.185 17 13.3376 17C14.4901 17 15.4331 17.9 15.4331 19Z" stroke="#1A1A1A" stroke-width="1.5"/>
<path id="Vector_2" d="M15.4331 5C15.4331 6.1 14.4901 7 13.3376 7C12.185 7 11.2421 6.1 11.2421 5C11.2421 3.9 12.185 3 13.3376 3C14.4901 3 15.4331 3.9 15.4331 5Z" stroke="#1A1A1A" stroke-width="1.5"/>
<path id="Vector_3" d="M15.4331 12C15.4331 13.1 14.4901 14 13.3376 14C12.185 14 11.2421 13.1 11.2421 12C11.2421 10.9 12.185 10 13.3376 10C14.4901 10 15.4331 10.9 15.4331 12Z" stroke="#1A1A1A" stroke-width="1.5"/>
</g>
</g>
</svg>
