<svg width="24" height="25" viewBox="0 0 24 25" fill="none" xmlns="http://www.w3.org/2000/svg">
<g id="vuesax/linear/profile">
<path id="Union" fill-rule="evenodd" clip-rule="evenodd" d="M8.48671 7.37095C8.48671 5.45928 10.0309 3.90779 11.9499 3.90779C13.86 3.90779 15.4123 5.45954 15.413 7.36952C15.4045 9.23213 13.9498 10.7412 12.116 10.8236C12.0051 10.8155 11.8875 10.8159 11.7761 10.8237C9.94056 10.7421 8.48671 9.23207 8.48671 7.37095ZM11.9499 2.5C9.25131 2.5 7.07892 4.68385 7.07892 7.37095C7.07892 10.002 9.15268 12.1443 11.7667 12.2321C11.7958 12.2331 11.825 12.2323 11.854 12.2296C11.9171 12.2239 11.9847 12.2245 12.03 12.229C12.0611 12.2321 12.0924 12.2332 12.1237 12.2321C14.7382 12.1442 16.8099 10.0021 16.8208 7.37389L16.8208 7.37095C16.8208 4.68281 14.638 2.5 11.9499 2.5ZM17.1929 14.4064C15.7668 13.4539 13.9214 12.9998 12.1117 12.9998C10.3018 12.9998 8.45282 13.454 7.01834 14.4051L7.01576 14.4069C5.73434 15.2647 5 16.4629 5 17.7499C5 19.0371 5.73459 20.2333 7.01673 21.0865C8.44713 22.0433 10.2945 22.5 12.1046 22.5C13.9151 22.5 15.7629 22.0431 17.1934 21.086L17.1935 21.0859C18.475 20.2281 19.2093 19.0299 19.2093 17.7428C19.2093 16.4557 18.4748 15.2597 17.1929 14.4064ZM6.40779 17.7499C6.40779 17.0405 6.80871 16.24 7.79759 15.5776C8.95332 14.8118 10.5153 14.4076 12.1117 14.4076C13.7089 14.4076 15.2656 14.8121 16.411 15.5771L16.4121 15.5778C17.4007 16.2356 17.8015 17.0336 17.8015 17.7428C17.8015 18.4525 17.4002 19.2534 16.4104 19.916C15.26 20.6857 13.7009 21.0922 12.1046 21.0922C10.5083 21.0922 8.94918 20.6857 7.79875 19.9159L7.79721 19.9149C6.80855 19.2571 6.40779 18.4591 6.40779 17.7499Z" fill="#1A1A1A"/>
</g>
</svg>
