<svg width="75" height="72" viewBox="0 0 75 72" fill="none" xmlns="http://www.w3.org/2000/svg">
<g id="vuesax/linear/programming-arrows">
<g id="programming-arrows">
<path id="Vector" d="M59.375 48V19.5C59.375 16.2 56.5625 13.5 53.125 13.5H35.9375" stroke="#FF3D5D" stroke-width="3" stroke-linecap="round" stroke-linejoin="round"/>
<path id="Vector_2" d="M43.75 6L34.375 13.5L43.75 21" stroke="#FF3D5D" stroke-width="3" stroke-linecap="round" stroke-linejoin="round"/>
<path id="Vector_3" d="M59.375 66C64.5527 66 68.75 61.9706 68.75 57C68.75 52.0294 64.5527 48 59.375 48C54.1973 48 50 52.0294 50 57C50 61.9706 54.1973 66 59.375 66Z" stroke="#FF3D5D" stroke-width="3" stroke-linecap="round" stroke-linejoin="round"/>
<path id="Vector_4" d="M15.625 24V52.5C15.625 55.8 18.4375 58.5 21.875 58.5H39.0625" stroke="#FF3D5D" stroke-width="3" stroke-linecap="round" stroke-linejoin="round"/>
<path id="Vector_5" d="M31.25 66L40.625 58.5L31.25 51" stroke="#FF3D5D" stroke-width="3" stroke-linecap="round" stroke-linejoin="round"/>
<path id="Vector_6" d="M15.625 24C20.8027 24 25 19.9706 25 15C25 10.0294 20.8027 6 15.625 6C10.4473 6 6.25 10.0294 6.25 15C6.25 19.9706 10.4473 24 15.625 24Z" stroke="#FF3D5D" stroke-width="3" stroke-linecap="round" stroke-linejoin="round"/>
</g>
</g>
</svg>
