<svg width="35" height="35" viewBox="0 0 35 35" fill="none" xmlns="http://www.w3.org/2000/svg">
<g id="vuesax/linear/reserve">
<g id="reserve">
<path id="Vector" d="M27.6647 32.0833H7.24805C2.87305 32.0833 2.87305 30.1145 2.87305 27.7083V26.25C2.87305 25.4479 3.5293 24.7916 4.33138 24.7916H30.5814C31.3835 24.7916 32.0397 25.4479 32.0397 26.25V27.7083C32.0397 30.1145 32.0397 32.0833 27.6647 32.0833Z" stroke="white" stroke-width="1.5" stroke-linecap="round" stroke-linejoin="round"/>
<path id="Vector_2" d="M30.2165 18.9583V24.7916H4.76855V18.9583C4.76855 13.3583 8.72064 8.67704 13.9852 7.55413C14.7727 7.37913 15.5894 7.29163 16.4352 7.29163H18.5498C19.3956 7.29163 20.2269 7.37913 21.0144 7.55413C26.279 8.69163 30.2165 13.3583 30.2165 18.9583Z" stroke="white" stroke-width="1.5" stroke-linecap="round" stroke-linejoin="round"/>
<path id="Vector_3" d="M21.1462 6.56246C21.1462 6.91246 21.1024 7.23329 21.0149 7.55413C20.2274 7.37913 19.3962 7.29163 18.5503 7.29163H16.4357C15.5899 7.29163 14.7732 7.37913 13.9857 7.55413C13.8982 7.23329 13.8545 6.91246 13.8545 6.56246C13.8545 4.54996 15.4878 2.91663 17.5003 2.91663C19.5128 2.91663 21.1462 4.54996 21.1462 6.56246Z" stroke="white" stroke-width="1.5" stroke-linecap="round" stroke-linejoin="round"/>
<path id="Vector_4" d="M21.875 16.0416H13.125" stroke="white" stroke-width="1.5" stroke-linecap="round" stroke-linejoin="round"/>
</g>
</g>
</svg>
