<svg width="25" height="24" viewBox="0 0 25 24" fill="none" xmlns="http://www.w3.org/2000/svg">
<g id="vuesax/linear/reserve">
<g id="reserve">
<path id="Vector" d="M19.04 21.9998H5.04004C2.04004 21.9998 2.04004 20.6498 2.04004 18.9998V17.9998C2.04004 17.4498 2.49004 16.9998 3.04004 16.9998H21.04C21.59 16.9998 22.04 17.4498 22.04 17.9998V18.9998C22.04 20.6498 22.04 21.9998 19.04 21.9998Z" stroke="#29D025" stroke-width="1.5" stroke-linecap="round" stroke-linejoin="round"/>
<path id="Vector_2" d="M20.7898 12.9998V16.9998H3.33984V12.9998C3.33984 9.15976 6.04984 5.94976 9.65984 5.17976C10.1998 5.05976 10.7598 4.99976 11.3398 4.99976H12.7898C13.3698 4.99976 13.9398 5.05976 14.4798 5.17976C18.0898 5.95976 20.7898 9.15976 20.7898 12.9998Z" stroke="#29D025" stroke-width="1.5" stroke-linecap="round" stroke-linejoin="round"/>
<path id="Vector_3" d="M14.5698 4.49976C14.5698 4.73976 14.5398 4.95976 14.4798 5.17976C13.9398 5.05976 13.3698 4.99976 12.7898 4.99976H11.3398C10.7598 4.99976 10.1998 5.05976 9.65982 5.17976C9.59982 4.95976 9.56982 4.73976 9.56982 4.49976C9.56982 3.11976 10.6898 1.99976 12.0698 1.99976C13.4498 1.99976 14.5698 3.11976 14.5698 4.49976Z" stroke="#29D025" stroke-width="1.5" stroke-linecap="round" stroke-linejoin="round"/>
<path id="Vector_4" d="M15.0698 10.9998H9.06982" stroke="#29D025" stroke-width="1.5" stroke-linecap="round" stroke-linejoin="round"/>
</g>
</g>
</svg>
