<svg width="24" height="24" viewBox="0 0 24 24" fill="none" xmlns="http://www.w3.org/2000/svg">
<g id="vuesax/linear/reserve">
<g id="reserve">
<path id="Vector" d="M18.9702 22.0002H4.97021C1.97021 22.0002 1.97021 20.6502 1.97021 19.0002V18.0002C1.97021 17.4502 2.42021 17.0002 2.97021 17.0002H20.9702C21.5202 17.0002 21.9702 17.4502 21.9702 18.0002V19.0002C21.9702 20.6502 21.9702 22.0002 18.9702 22.0002Z" stroke="#FF3B3B" stroke-width="1.5" stroke-linecap="round" stroke-linejoin="round"/>
<path id="Vector_2" d="M20.72 13.0002V17.0002H3.27002V13.0002C3.27002 9.16024 5.98002 5.95024 9.59002 5.18024C10.13 5.06024 10.69 5.00024 11.27 5.00024H12.72C13.3 5.00024 13.87 5.06024 14.41 5.18024C18.02 5.96024 20.72 9.16024 20.72 13.0002Z" stroke="#FF3B3B" stroke-width="1.5" stroke-linecap="round" stroke-linejoin="round"/>
<path id="Vector_3" d="M14.5 4.50024C14.5 4.74024 14.47 4.96024 14.41 5.18024C13.87 5.06024 13.3 5.00024 12.72 5.00024H11.27C10.69 5.00024 10.13 5.06024 9.59 5.18024C9.53 4.96024 9.5 4.74024 9.5 4.50024C9.5 3.12024 10.62 2.00024 12 2.00024C13.38 2.00024 14.5 3.12024 14.5 4.50024Z" stroke="#FF3B3B" stroke-width="1.5" stroke-linecap="round" stroke-linejoin="round"/>
<path id="Vector_4" d="M15 11.0002H9" stroke="#FF3B3B" stroke-width="1.5" stroke-linecap="round" stroke-linejoin="round"/>
</g>
</g>
</svg>
