<svg width="38" height="37" viewBox="0 0 38 37" fill="none" xmlns="http://www.w3.org/2000/svg">
<g id="vuesax/linear/reserve">
<g id="reserve">
<path id="Vector" d="M7.96419 33.9166H30.1309C34.8809 33.9166 34.8809 31.8353 34.8809 29.2916V27.7499C34.8809 26.902 34.1684 26.2083 33.2975 26.2083H4.79753C3.92669 26.2083 3.21419 26.902 3.21419 27.7499V29.2916C3.21419 31.8353 3.21419 33.9166 7.96419 33.9166Z" stroke="#29D025" stroke-width="1.5" stroke-linecap="round" stroke-linejoin="round"/>
<path id="Vector_2" d="M5.1931 20.0416V26.2083H32.8223V20.0416C32.8223 14.1216 28.5314 9.17283 22.8156 7.98575C21.9606 7.80075 21.0739 7.70825 20.1556 7.70825H17.8598C16.9414 7.70825 16.0389 7.80075 15.1839 7.98575C9.4681 9.18825 5.1931 14.1216 5.1931 20.0416Z" stroke="#29D025" stroke-width="1.5" stroke-linecap="round" stroke-linejoin="round"/>
<path id="Vector_3" d="M15.0413 6.93742C15.0413 7.30742 15.0888 7.64659 15.1838 7.98575C16.0388 7.80075 16.9413 7.70825 17.8597 7.70825H20.1555C21.0738 7.70825 21.9605 7.80075 22.8155 7.98575C22.9105 7.64659 22.958 7.30742 22.958 6.93742C22.958 4.80992 21.1847 3.08325 18.9997 3.08325C16.8147 3.08325 15.0413 4.80992 15.0413 6.93742Z" stroke="#29D025" stroke-width="1.5" stroke-linecap="round" stroke-linejoin="round"/>
<path id="Vector_4" d="M14.25 16.9583H23.75" stroke="#29D025" stroke-width="1.5" stroke-linecap="round" stroke-linejoin="round"/>
</g>
</g>
</svg>
