<svg width="19" height="19" viewBox="0 0 19 19" fill="none" xmlns="http://www.w3.org/2000/svg">
<g id="vuesax/linear/shopping-cart">
<g id="shopping-cart">
<path id="Vector" d="M17 2H15.695C14.885 2 14.2475 2.6975 14.315 3.5L14.9375 10.97C15.0425 12.1925 14.075 13.2425 12.845 13.2425H4.8575C3.7775 13.2425 2.8325 12.3575 2.75 11.285L2.345 5.66C2.255 4.415 3.2 3.4025 4.4525 3.4025H14.135" stroke="white" stroke-width="1.2" stroke-miterlimit="10" stroke-linecap="round" stroke-linejoin="round"/>
<path id="Vector_2" d="M6.3125 17C5.79473 17 5.375 16.5803 5.375 16.0625C5.375 15.5447 5.79473 15.125 6.3125 15.125C6.83027 15.125 7.25 15.5447 7.25 16.0625C7.25 16.5803 6.83027 17 6.3125 17Z" stroke="white" stroke-width="1.2" stroke-miterlimit="10" stroke-linecap="round" stroke-linejoin="round"/>
<path id="Vector_3" d="M12.3125 17C11.7947 17 11.375 16.5803 11.375 16.0625C11.375 15.5447 11.7947 15.125 12.3125 15.125C12.8303 15.125 13.25 15.5447 13.25 16.0625C13.25 16.5803 12.8303 17 12.3125 17Z" stroke="white" stroke-width="1.2" stroke-miterlimit="10" stroke-linecap="round" stroke-linejoin="round"/>
<path id="Vector_4" d="M11.75 6.5H2.75" stroke="white" stroke-width="1.2" stroke-miterlimit="10" stroke-linecap="round" stroke-linejoin="round"/>
</g>
</g>
</svg>
