<svg width="36" height="38" viewBox="0 0 36 38" fill="none" xmlns="http://www.w3.org/2000/svg">
<g id="vuesax/linear/star">
<g id="star">
<path id="Vector" d="M20.5949 5.55755L23.2349 11.1309C23.5949 11.9067 24.5549 12.6509 25.3649 12.7934L30.1499 13.6326C33.2099 14.1709 33.9299 16.5142 31.7249 18.8259L28.0049 22.7526C27.3749 23.4176 27.0299 24.7001 27.2249 25.6184L28.2899 30.4792C29.1299 34.3267 27.1949 35.8151 23.9699 33.8042L19.4849 31.0017C18.6749 30.4951 17.3399 30.4951 16.5149 31.0017L12.0299 33.8042C8.81986 35.8151 6.86986 34.3109 7.70986 30.4792L8.77486 25.6184C8.96986 24.7001 8.62486 23.4176 7.99486 22.7526L4.27486 18.8259C2.08486 16.5142 2.78986 14.1709 5.84986 13.6326L10.6349 12.7934C11.4299 12.6509 12.3899 11.9067 12.7499 11.1309L15.3899 5.55755C16.8299 2.53339 19.1699 2.53339 20.5949 5.55755Z" fill="#FBBC05"/>
</g>
</g>
</svg>
