<svg width="51" height="51" viewBox="0 0 51 51" fill="none" xmlns="http://www.w3.org/2000/svg">
<g id="vuesax/linear/ticket">
<g id="ticket">
<path id="Vector" d="M9.5625 26.5625C9.5625 23.63 7.1825 21.25 4.25 21.25V19.125C4.25 10.625 6.375 8.5 14.875 8.5H36.125C44.625 8.5 46.75 10.625 46.75 19.125V20.1875C43.8175 20.1875 41.4375 22.5675 41.4375 25.5C41.4375 28.4325 43.8175 30.8125 46.75 30.8125V31.875C46.75 40.375 44.625 42.5 36.125 42.5H14.875C6.375 42.5 4.25 40.375 4.25 31.875C7.1825 31.875 9.5625 29.495 9.5625 26.5625Z" stroke="#29D025" stroke-width="1.5" stroke-linecap="round" stroke-linejoin="round"/>
<path id="Vector_2" d="M29.75 8.5L29.75 42.5" stroke="#29D025" stroke-width="1.5" stroke-linecap="round" stroke-linejoin="round" stroke-dasharray="5 5"/>
</g>
</g>
</svg>
