<svg width="33" height="33" viewBox="0 0 33 33" fill="none" xmlns="http://www.w3.org/2000/svg">
<g id="vuesax/linear/video-play">
<g id="video-play">
<path id="Vector" d="M30.25 20.625V12.375C30.25 5.5 27.5 2.75 20.625 2.75H12.375C5.5 2.75 2.75 5.5 2.75 12.375V20.625C2.75 27.5 5.5 30.25 12.375 30.25H20.625C27.5 30.25 30.25 27.5 30.25 20.625Z" stroke="white" stroke-width="1.5" stroke-linecap="round" stroke-linejoin="round"/>
<path id="Vector_2" d="M3.46484 9.77625H29.5348" stroke="white" stroke-width="1.5" stroke-linecap="round" stroke-linejoin="round"/>
<path id="Vector_3" d="M11.7148 2.90125V9.58375" stroke="white" stroke-width="1.5" stroke-linecap="round" stroke-linejoin="round"/>
<path id="Vector_4" d="M21.2852 2.90125V8.96499" stroke="white" stroke-width="1.5" stroke-linecap="round" stroke-linejoin="round"/>
<path id="Vector_5" d="M13.4062 19.8688V18.2188C13.4062 16.1013 14.905 15.235 16.7338 16.2938L18.1638 17.1188L19.5938 17.9438C21.4225 19.0025 21.4225 20.735 19.5938 21.7938L18.1638 22.6188L16.7338 23.4438C14.905 24.5025 13.4062 23.6363 13.4062 21.5188V19.8688V19.8688Z" stroke="white" stroke-width="1.5" stroke-miterlimit="10" stroke-linecap="round" stroke-linejoin="round"/>
</g>
</g>
</svg>
