<svg width="25" height="24" viewBox="0 0 25 24" fill="none" xmlns="http://www.w3.org/2000/svg">
<g id="vuesax/linear/wallet-money">
<path id="Vector" d="M13.2963 16.8604V18.8904C13.2963 20.6104 14.8963 22.0004 16.8663 22.0004C18.8363 22.0004 20.4463 20.6104 20.4463 18.8904V16.8604C20.4463 18.5804 18.8463 19.8004 16.8663 19.8004C14.8963 19.8004 13.2963 18.5704 13.2963 16.8604Z" stroke="#29D025" stroke-width="1.5" stroke-linecap="round" stroke-linejoin="round"/>
<path id="Vector_2" d="M13.298 14.11C13.298 14.61 13.438 15.07 13.678 15.47C14.268 16.44 15.4781 17.05 16.8781 17.05C18.2781 17.05 19.4881 16.43 20.0781 15.47C20.3181 15.07 20.458 14.61 20.458 14.11C20.458 13.25 20.058 12.48 19.418 11.92C18.768 11.35 17.8781 11.01 16.8881 11.01C15.8981 11.01 15.008 11.36 14.358 11.92C13.698 12.47 13.298 13.25 13.298 14.11Z" stroke="#29D025" stroke-width="1.5" stroke-linecap="round" stroke-linejoin="round"/>
<path id="Vector_3" d="M13.2963 14.11V16.86C13.2963 18.58 14.8963 19.8 16.8663 19.8C18.8363 19.8 20.4463 18.57 20.4463 16.86V14.11C20.4463 12.39 18.8463 11 16.8663 11C15.8763 11 14.9862 11.35 14.3362 11.91C13.6962 12.47 13.2963 13.25 13.2963 14.11Z" stroke="#29D025" stroke-width="1.5" stroke-linecap="round" stroke-linejoin="round"/>
<path id="Vector_4" d="M2.04764 10.9699V13.03C2.04764 13.58 2.48764 14.0299 3.04764 14.0499H5.00766C6.08766 14.0499 7.07763 13.2599 7.16763 12.1799C7.22763 11.5499 6.98766 10.9599 6.56766 10.5499C6.19766 10.1699 5.68766 9.94995 5.12766 9.94995H3.04764C2.48764 9.96995 2.04764 10.4199 2.04764 10.9699Z" stroke="#29D025" stroke-width="1.5" stroke-linecap="round" stroke-linejoin="round"/>
<path id="Vector_5" d="M22.0479 10.5V8.5C22.0479 5.78 20.4078 3.88 17.8578 3.56C17.5978 3.52 17.3279 3.5 17.0479 3.5H8.04785C7.78785 3.5 7.53785 3.50999 7.29785 3.54999C4.71785 3.84999 3.04785 5.76 3.04785 8.5V9.95001H5.12787C5.68787 9.95001 6.19787 10.17 6.56787 10.55C6.98787 10.96 7.22785 11.55 7.16785 12.18C7.07785 13.26 6.08787 14.05 5.00787 14.05H3.04785V15.5C3.04785 18.5 5.04785 20.5 8.04785 20.5H10.5479" stroke="#29D025" stroke-width="1.5" stroke-linecap="round" stroke-linejoin="round"/>
</g>
</svg>
