<svg width="38" height="30" viewBox="0 0 38 30" fill="none" xmlns="http://www.w3.org/2000/svg">
<g id="vuesax/linear/weight">
<g id="weight">
<path id="Vector" d="M27.2021 22.5C31.0021 22.5 31.9521 20.8125 31.9521 18.75V11.25C31.9521 9.1875 31.0021 7.5 27.2021 7.5C23.4021 7.5 22.4521 9.1875 22.4521 11.25V18.75C22.4521 20.8125 23.4021 22.5 27.2021 22.5Z" stroke="white" stroke-width="1.5" stroke-linecap="round" stroke-linejoin="round"/>
<path id="Vector_2" d="M10.7979 22.5C6.99785 22.5 6.04785 20.8125 6.04785 18.75V11.25C6.04785 9.1875 6.99785 7.5 10.7979 7.5C14.5979 7.5 15.5479 9.1875 15.5479 11.25V18.75C15.5479 20.8125 14.5979 22.5 10.7979 22.5Z" stroke="white" stroke-width="1.5" stroke-linecap="round" stroke-linejoin="round"/>
<path id="Vector_3" d="M15.5479 15H22.4512" stroke="white" stroke-width="1.5" stroke-linecap="round" stroke-linejoin="round"/>
<path id="Vector_4" d="M35.625 18.125V11.875" stroke="white" stroke-width="1.5" stroke-linecap="round" stroke-linejoin="round"/>
<path id="Vector_5" d="M2.375 18.125V11.875" stroke="white" stroke-width="1.5" stroke-linecap="round" stroke-linejoin="round"/>
</g>
</g>
</svg>
